<svg width="86" height="31" viewBox="0 0 86 31" fill="none" xmlns="http://www.w3.org/2000/svg">
<g clip-path="url(#clip0_92_3)">
<path d="M21.7675 16.4746C20.8637 15.1988 19.9793 14.4319 18.4382 13.9493C19.2956 13.2572 19.7823 12.5426 20.2921 11.4839C21.9451 8.05705 19.9097 4.42817 18.2606 2.88309C16.5766 1.3006 14.1396 1.03872 11.6446 1.03872H4.14802C3.03184 1.03872 2.06242 1.39039 1.23591 2.08623C0.409395 2.78956 0 3.69491 0 4.80228V25.9845C0 27.2377 0.45188 28.2142 1.35564 28.9138C2.2594 29.6134 3.26744 29.9613 4.38748 29.9613H13.0775C15.9471 29.9613 18.3417 29.1906 20.2535 27.6493C22.1653 26.1079 23.1231 23.8894 23.1231 20.9976C23.1231 19.2617 22.6712 17.7578 21.7675 16.4783V16.4746ZM4.24844 7.91115C4.44927 6.58679 5.39938 5.48691 6.63529 5.17265C8.43895 4.70127 9.74051 6.09671 10.2387 6.75888C10.7408 6.09671 12.0578 4.70127 13.8422 5.15395C15.0781 5.48317 16.0282 6.58305 16.2445 7.89244C16.5264 9.77796 15.7424 12.6212 10.4396 15.5842C10.3894 15.6178 10.3237 15.6553 10.2542 15.6553H10.2387C10.1731 15.6553 10.1036 15.6365 10.0534 15.5842C4.75053 12.6175 3.96264 9.77796 4.24844 7.91115ZM16.3758 24.0877C15.7617 24.5404 12.6642 26.6242 11.4824 26.6242C11.4051 26.6242 11.3317 26.6167 11.2584 26.5905C10.3083 26.2538 5.99802 25.2886 5.99802 25.2886H4.56128V20.6122C5.10971 20.5898 5.64656 20.4401 6.14479 20.167C6.66619 19.8303 7.35366 18.9287 8.28059 18.9287C8.55095 18.9287 8.82131 19.0073 9.06849 19.1457C10.4203 19.8752 10.4203 19.8004 11.4785 19.8004C12.5406 19.8341 13.1238 19.7705 13.2088 20.515C13.2358 20.9003 12.3359 21.6223 10.7563 21.6223C10.5941 21.6223 10.4241 21.6149 10.2465 21.5961C10.903 22.1461 11.5982 22.6212 12.3282 23.014L14.997 22.4716L15.7617 21.7645L16.3835 21.1921C17.0787 20.0024 17.8396 19.4338 18.303 19.4338C18.5 19.4151 18.6777 19.5759 18.7163 19.8079C18.8553 20.5673 17.0362 23.6051 16.3758 24.0877Z" fill="#FFFCF8"/>
<path d="M31.2801 29.778C29.9515 29.778 28.8893 29.4151 28.0899 28.693C27.2943 27.971 26.8926 27.0058 26.8926 25.8012V4.61897C26.8926 3.5116 27.302 2.60625 28.1285 1.90666C28.9511 1.20707 29.9206 0.859146 31.0406 0.859146H43.0791C43.9829 0.859146 44.6356 1.06491 45.0334 1.47269C45.4312 1.88421 45.6321 2.40049 45.6321 3.02525C45.6321 3.60512 45.4042 4.11018 44.9562 4.54414C44.5043 4.97811 43.8786 5.1951 43.083 5.1951H34.5514C33.1687 5.1951 32.4773 5.82361 32.4773 7.07314V11.0499C32.4773 12.3032 33.1146 12.928 34.3891 12.928H42.2835C43.1873 12.928 43.84 13.145 44.2378 13.5789C44.6356 14.0129 44.8364 14.518 44.8364 15.0978C44.8364 15.6291 44.6086 16.1229 44.1606 16.5793C43.7087 17.0395 43.083 17.2677 42.2874 17.2677H34.393C33.1185 17.2677 32.4812 17.87 32.4812 19.0746V23.4854C32.4812 24.7387 33.1455 25.3634 34.4741 25.3634H43.8825C44.7862 25.3634 45.4389 25.5917 45.8368 26.0481C46.2346 26.5082 46.4354 27.0245 46.4354 27.6044C46.4354 28.1842 46.2075 28.6893 45.7595 29.1233C45.3076 29.5572 44.682 29.7742 43.8863 29.7742H31.2878L31.2801 29.778Z" fill="#FFFCF8"/>
<path d="M52.8853 30.5C52.0356 30.5 51.3289 30.2232 50.7727 29.6695C50.2165 29.1158 49.9887 28.4536 50.0968 27.6829L53.5265 3.39188C53.6307 2.42667 54.044 1.70464 54.7624 1.22204C55.4807 0.739431 56.2648 0.5 57.1145 0.5C57.9642 0.5 58.7482 0.679574 59.4666 1.04246C60.1849 1.40535 60.6754 1.94781 60.9419 2.66985L67.2412 18.8614C67.5077 19.4413 67.7703 19.7293 68.0368 19.7293C68.3574 19.7293 68.62 19.4413 68.8363 18.8614L75.1356 2.66985C75.4021 1.94781 75.8926 1.40535 76.6109 1.04246C77.3293 0.679574 78.0863 0.5 78.8819 0.5C79.7316 0.5 80.5272 0.743172 81.2726 1.22204C82.018 1.70464 82.4429 2.42667 82.5472 3.39188L85.9768 27.6829C86.0811 28.4536 85.8687 29.1158 85.3396 29.6695C84.8066 30.2232 84.0882 30.5 83.1883 30.5C82.497 30.5 81.8713 30.283 81.3151 29.849C80.759 29.4151 80.423 28.8614 80.3187 28.188L78.5652 10.3316C78.5112 9.75178 78.2987 9.46371 77.928 9.46371C77.5572 9.46371 77.2907 9.70688 77.1323 10.1857L71.3931 24.5703C71.0725 25.341 70.6206 25.8947 70.0374 26.2314C69.4504 26.5681 68.7861 26.7364 68.0445 26.7364C66.6078 26.7364 65.5186 26.0144 64.7771 24.5666L58.9567 10.182C58.7443 9.6994 58.4778 9.45997 58.1573 9.45997C57.9448 9.45997 57.7865 9.74804 57.6783 10.3279L55.7665 28.1842C55.7125 28.8614 55.4074 29.4151 54.8512 29.8453C54.295 30.2755 53.6423 30.4963 52.8969 30.4963L52.8853 30.5Z" fill="#FFFCF8"/>
</g>
<defs>
<clipPath id="clip0_92_3">
<rect width="86" height="30" fill="white" transform="translate(0 0.5)"/>
</clipPath>
</defs>
</svg>
